<svg xmlns="http://www.w3.org/2000/svg" width="15" height="13" viewBox="0 0 15 13">
  <metadata><?xpacket begin="﻿" id="W5M0MpCehiHzreSzNTczkc9d"?>
<x:xmpmeta xmlns:x="adobe:ns:meta/" x:xmptk="Adobe XMP Core 5.6-c140 79.160451, 2017/05/06-01:08:21        ">
   <rdf:RDF xmlns:rdf="http://www.w3.org/1999/02/22-rdf-syntax-ns#">
      <rdf:Description rdf:about=""/>
   </rdf:RDF>
</x:xmpmeta>
                                                                                                    
                                                                                                    
                                                                                                    
                                                                                                    
                                                                                                    
                                                                                                    
                                                                                                    
                                                                                                    
                                                                                                    
                                                                                                    
                                                                                                    
                                                                                                    
                                                                                                    
                                                                                                    
                                                                                                    
                                                                                                    
                                                                                                    
                                                                                                    
                                                                                                    
                                                                                                    
                           
<?xpacket end="w"?></metadata>
<defs>
    <style>
      .cls-1 {
        fill: #fff;
        fill-rule: evenodd;
      }
    </style>
  </defs>
  <path id="icon-twitter" class="cls-1" d="M845.5,123.044a5.827,5.827,0,0,1-1.769.507,3.239,3.239,0,0,0,1.352-1.807,5.835,5.835,0,0,1-1.951.792,2.981,2.981,0,0,0-2.247-1.036,3.181,3.181,0,0,0-3.074,3.28,3.914,3.914,0,0,0,.076.752,8.572,8.572,0,0,1-6.34-3.433,3.421,3.421,0,0,0-.419,1.656,3.342,3.342,0,0,0,1.371,2.732,2.959,2.959,0,0,1-1.39-.417v0.041a3.235,3.235,0,0,0,2.466,3.219,3.062,3.062,0,0,1-.809.112,3.576,3.576,0,0,1-.581-0.051,3.111,3.111,0,0,0,2.875,2.275,5.917,5.917,0,0,1-3.818,1.4,5.849,5.849,0,0,1-.742-0.041,8.291,8.291,0,0,0,4.721,1.473c5.655,0,8.748-5,8.748-9.334,0-.142,0-0.284-0.009-0.426a6.816,6.816,0,0,0,1.54-1.7h0Z" transform="translate(-830.5 -121.5)"/>
</svg>
