<svg xmlns="http://www.w3.org/2000/svg" width="16" height="15" viewBox="0 0 16 15">
  <metadata><?xpacket begin="﻿" id="W5M0MpCehiHzreSzNTczkc9d"?>
<x:xmpmeta xmlns:x="adobe:ns:meta/" x:xmptk="Adobe XMP Core 5.6-c140 79.160451, 2017/05/06-01:08:21        ">
   <rdf:RDF xmlns:rdf="http://www.w3.org/1999/02/22-rdf-syntax-ns#">
      <rdf:Description rdf:about=""/>
   </rdf:RDF>
</x:xmpmeta>
                                                                                                    
                                                                                                    
                                                                                                    
                                                                                                    
                                                                                                    
                                                                                                    
                                                                                                    
                                                                                                    
                                                                                                    
                                                                                                    
                                                                                                    
                                                                                                    
                                                                                                    
                                                                                                    
                                                                                                    
                                                                                                    
                                                                                                    
                                                                                                    
                                                                                                    
                                                                                                    
                           
<?xpacket end="w"?></metadata>
<defs>
    <style>
      .cls-1 {
        fill: #fff;
        fill-rule: evenodd;
      }
    </style>
  </defs>
  <path id="icon-google-plus" class="cls-1" d="M922.585,132.775c0,1.537-1.7,2.065-2.764,2.065-1.625,0-4.053-.651-4.053-2.338,0-1.827,2.743-2.285,4.281-2.285a2.366,2.366,0,0,1,.357.018c0.818,0.624,2.179,1.31,2.179,2.54h0Zm-1.247-7.958a1.488,1.488,0,0,1-1.438,1.721,3.216,3.216,0,0,1-2.907-3.206,2.106,2.106,0,0,1,2.192-2.23c1.442,0,2.153,2.4,2.153,3.715h0Zm-1.06-4.317a10.888,10.888,0,0,0-1.666.167,3.807,3.807,0,0,0-3.424,3.66c0,1.564,1.614,2.871,3.795,2.871a4.133,4.133,0,0,0,.7-0.055,3.685,3.685,0,0,0-.157.886,3.267,3.267,0,0,0,.456,1.528c-2.043.054-4.841,0.561-5.636,2.163a2.6,2.6,0,0,0-.342,1.187c0,2.019,2.235,2.593,4.666,2.593a6.863,6.863,0,0,0,3.929-1,3.18,3.18,0,0,0,1.294-2.478c0-2.616-2.956-3.139-2.956-4.461s2.253-1.464,2.253-3.549a3.219,3.219,0,0,0-1.474-2.849h0.618l1.509-.66h-3.561ZM930,122.835h-2.366V120.5h-1.27v2.335h-2.41v1.274h2.41V126.1h1.27v-1.993H930v-1.274h0Z" transform="translate(-914 -120.5)"/>
</svg>
