<svg xmlns="http://www.w3.org/2000/svg" width="15" height="15" viewBox="0 0 15 15">
  <metadata><?xpacket begin="﻿" id="W5M0MpCehiHzreSzNTczkc9d"?>
<x:xmpmeta xmlns:x="adobe:ns:meta/" x:xmptk="Adobe XMP Core 5.6-c140 79.160451, 2017/05/06-01:08:21        ">
   <rdf:RDF xmlns:rdf="http://www.w3.org/1999/02/22-rdf-syntax-ns#">
      <rdf:Description rdf:about=""/>
   </rdf:RDF>
</x:xmpmeta>
                                                                                                    
                                                                                                    
                                                                                                    
                                                                                                    
                                                                                                    
                                                                                                    
                                                                                                    
                                                                                                    
                                                                                                    
                                                                                                    
                                                                                                    
                                                                                                    
                                                                                                    
                                                                                                    
                                                                                                    
                                                                                                    
                                                                                                    
                                                                                                    
                                                                                                    
                                                                                                    
                           
<?xpacket end="w"?></metadata>
<defs>
    <style>
      .cls-1 {
        fill: #fff;
        fill-rule: evenodd;
      }
    </style>
  </defs>
  <path id="icon-pinterest" class="cls-1" d="M887.5,128.377c0-4.242-3.514-7.877-7.388-7.877a7.779,7.779,0,0,0-7.612,7.877A6.606,6.606,0,0,0,877.056,135a4.184,4.184,0,0,1,.128-1.373s0.147-.481.974-4.13a3.4,3.4,0,0,1-.249-1.257c0-1.175.658-2.052,1.476-2.052a1.054,1.054,0,0,1,1.035,1.2,17.423,17.423,0,0,1-.677,2.8,1.2,1.2,0,0,0,1.086,1.525c1.127,0,1.884-1.927,1.884-4.205,0-1.668-.881-2.736-2.521-2.736a3.431,3.431,0,0,0-3.743,3.488,2.375,2.375,0,0,0,.5,1.557,0.4,0.4,0,0,1,.107.443c-0.039.144-.117,0.5-0.156,0.629a0.257,0.257,0,0,1-.373.206,3.029,3.029,0,0,1-1.733-3.03,5.488,5.488,0,0,1,5.607-5.155,5.412,5.412,0,0,1,4.805,4.742c0,3.113-2.227,5.432-4.246,5.432a2.086,2.086,0,0,1-1.705-.989c-0.449,1.617-.538,1.881-0.538,1.881a4.589,4.589,0,0,1-.778,1.273,9.485,9.485,0,0,0,2.173.248,7.109,7.109,0,0,0,7.388-7.123h0Z" transform="translate(-872.5 -120.5)"/>
</svg>
