<svg xmlns="http://www.w3.org/2000/svg" width="13" height="14" viewBox="0 0 13 14">
  <metadata><?xpacket begin="﻿" id="W5M0MpCehiHzreSzNTczkc9d"?>
<x:xmpmeta xmlns:x="adobe:ns:meta/" x:xmptk="Adobe XMP Core 5.6-c140 79.160451, 2017/05/06-01:08:21        ">
   <rdf:RDF xmlns:rdf="http://www.w3.org/1999/02/22-rdf-syntax-ns#">
      <rdf:Description rdf:about=""/>
   </rdf:RDF>
</x:xmpmeta>
                                                                                                    
                                                                                                    
                                                                                                    
                                                                                                    
                                                                                                    
                                                                                                    
                                                                                                    
                                                                                                    
                                                                                                    
                                                                                                    
                                                                                                    
                                                                                                    
                                                                                                    
                                                                                                    
                                                                                                    
                                                                                                    
                                                                                                    
                                                                                                    
                                                                                                    
                                                                                                    
                           
<?xpacket end="w"?></metadata>
<defs>
    <style>
      .cls-1 {
        fill: #fff;
        fill-rule: evenodd;
      }
    </style>
  </defs>
  <path id="icon-rss" class="cls-1" d="M961.043,133.091A1.776,1.776,0,1,0,959.271,135a1.844,1.844,0,0,0,1.772-1.909h0Zm4.724,1.223a9.24,9.24,0,0,0-2.417-5.618,8.046,8.046,0,0,0-5.213-2.605H958.09a0.541,0.541,0,0,0-.4.169,0.626,0.626,0,0,0-.194.467v1.343a0.612,0.612,0,0,0,.535.626,6.148,6.148,0,0,1,5.315,5.727,0.6,0.6,0,0,0,.581.577h1.246a0.547,0.547,0,0,0,.434-0.209,0.672,0.672,0,0,0,.156-0.477h0Zm4.732,0.02a14.572,14.572,0,0,0-3.827-9.218A12.59,12.59,0,0,0,958.118,121H958.09a0.555,0.555,0,0,0-.406.179,0.634,0.634,0,0,0-.184.457v1.422a0.613,0.613,0,0,0,.554.627c5.36,0.338,9.633,4.941,9.937,10.718a0.609,0.609,0,0,0,.591.6H969.9a0.547,0.547,0,0,0,.424-0.2,0.635,0.635,0,0,0,.174-0.467h0Z" transform="translate(-957.5 -121)"/>
</svg>
