<svg xmlns="http://www.w3.org/2000/svg" width="15" height="14" viewBox="0 0 15 14">
  <metadata><?xpacket begin="﻿" id="W5M0MpCehiHzreSzNTczkc9d"?>
<x:xmpmeta xmlns:x="adobe:ns:meta/" x:xmptk="Adobe XMP Core 5.6-c140 79.160451, 2017/05/06-01:08:21        ">
   <rdf:RDF xmlns:rdf="http://www.w3.org/1999/02/22-rdf-syntax-ns#">
      <rdf:Description rdf:about=""/>
   </rdf:RDF>
</x:xmpmeta>
                                                                                                    
                                                                                                    
                                                                                                    
                                                                                                    
                                                                                                    
                                                                                                    
                                                                                                    
                                                                                                    
                                                                                                    
                                                                                                    
                                                                                                    
                                                                                                    
                                                                                                    
                                                                                                    
                                                                                                    
                                                                                                    
                                                                                                    
                                                                                                    
                                                                                                    
                                                                                                    
                           
<?xpacket end="w"?></metadata>
<defs>
    <style>
      .cls-1 {
        fill: #fff;
        fill-rule: evenodd;
      }
    </style>
  </defs>
  <path id="icon-linkedin" class="cls-1" d="M791.725,125.427h-3.042V135h3.042v-9.573h0Zm0.214-2.956A1.591,1.591,0,0,0,790.223,121a1.653,1.653,0,1,0-.036,3.3h0.018a1.624,1.624,0,0,0,1.734-1.652v-0.181h0Zm11.561,6.972c0-2.823-1.5-4.057-3.548-4.057a2.97,2.97,0,0,0-3.045,1.432l0.021,0.019v-1.252h-3.35s0.041,0.809,0,9.345h3.35v-5.342a2.264,2.264,0,0,1,.112-0.782,1.829,1.829,0,0,1,1.72-1.16c1.212,0,1.7.879,1.7,2.164v5.12H803.5v-5.487h0Z" transform="translate(-788.5 -121)"/>
</svg>
