<svg xmlns="http://www.w3.org/2000/svg" width="53" height="44" viewBox="0 0 53 44">
  <metadata><?xpacket begin="﻿" id="W5M0MpCehiHzreSzNTczkc9d"?>
<x:xmpmeta xmlns:x="adobe:ns:meta/" x:xmptk="Adobe XMP Core 5.6-c140 79.160451, 2017/05/06-01:08:21        ">
   <rdf:RDF xmlns:rdf="http://www.w3.org/1999/02/22-rdf-syntax-ns#">
      <rdf:Description rdf:about=""/>
   </rdf:RDF>
</x:xmpmeta>
                                                                                                    
                                                                                                    
                                                                                                    
                                                                                                    
                                                                                                    
                                                                                                    
                                                                                                    
                                                                                                    
                                                                                                    
                                                                                                    
                                                                                                    
                                                                                                    
                                                                                                    
                                                                                                    
                                                                                                    
                                                                                                    
                                                                                                    
                                                                                                    
                                                                                                    
                                                                                                    
                           
<?xpacket end="w"?></metadata>
<defs>
    <style>
      .cls-1 {
        fill: #d4d4d4;
        fill-rule: evenodd;
      }
    </style>
  </defs>
  <path id="Composite_Path" data-name="Composite Path" class="cls-1" d="M700.3,811c-1.614,1.031-3.631,2.363-6.01,4a38.851,38.851,0,0,0-6.794,5.93,33.847,33.847,0,0,0-5.309,7.777A21.013,21.013,0,0,0,680,838.328c0,4.984.956,9.024,2.888,12.074q2.9,4.61,9.619,4.6a8.312,8.312,0,0,0,6.773-2.986,9.91,9.91,0,0,0,2.464-6.424c0-3.223-.892-5.651-2.676-7.326a10.216,10.216,0,0,0-7.3-2.514h-3.61a24.286,24.286,0,0,1,1.571-6.875,19.465,19.465,0,0,1,3.228-5.092,27.91,27.91,0,0,1,4.438-4.168c1.443-1.031,3.355-2.3,5.712-3.76L700.3,811h0Zm29.9,0c-1.614,1.031-3.631,2.363-6.009,4a38.82,38.82,0,0,0-6.795,5.93,33.812,33.812,0,0,0-5.308,7.777,21,21,0,0,0-2.188,9.625c0,4.984.956,9.024,2.888,12.074q2.9,4.61,9.619,4.6a8.313,8.313,0,0,0,6.774-2.986,9.909,9.909,0,0,0,2.463-6.424c0-3.223-.892-5.651-2.676-7.326a10.214,10.214,0,0,0-7.3-2.514h-3.61a25.448,25.448,0,0,1,1.529-6.832,19.29,19.29,0,0,1,3.27-5.135,27.953,27.953,0,0,1,4.438-4.168c1.444-1.031,3.355-2.3,5.712-3.76L730.2,811h0Z" transform="translate(-680 -811)"/>
</svg>
