<svg xmlns="http://www.w3.org/2000/svg" width="34" height="30" viewBox="0 0 34 30"><g><g><path fill="#fff" d="M14.428.626c7.54 0 13.65 4.948 13.65 11.046 0 6.102-6.11 11.048-13.65 11.048a16.87 16.87 0 0 1-2.128-.134c-2.931 2.921-6.319 3.443-9.702 3.52v-.713c1.828-.892 3.3-2.516 3.3-4.373 0-.258-.02-.514-.058-.762C2.752 18.232.779 15.139.779 11.672.779 5.574 6.889.626 14.428.626c7.538 0 0 0 0 0zm14.675 24.761c0 1.592 1.031 2.983 2.615 3.747v.614c-2.931-.066-5.623-.516-8.164-3.02-.602.077-1.218.117-1.846.117-2.715 0-5.217-.734-7.21-1.964 4.113-.014 7.998-1.333 10.941-3.717 1.486-1.202 2.656-2.611 3.482-4.189a11.334 11.334 0 0 0 1.283-6.189c2.064 1.706 3.336 4.03 3.336 6.589 0 2.971-1.712 5.622-4.387 7.358-.034.216-.05.432-.05.654 0 .222 0 0 0 0z"/></g></g></svg>