<svg xmlns="http://www.w3.org/2000/svg" width="30" height="34" viewBox="0 0 30 34"><g><g><path fill="#fff" d="M14.912 4.615c7.91 0 14.322 6.412 14.322 14.323 0 7.91-6.412 14.322-14.322 14.322-7.91 0-14.323-6.412-14.323-14.322 0-7.911 6.412-14.323 14.323-14.323 0 0-7.91 0 0 0zm0 25.831c6.356 0 11.509-5.153 11.509-11.508 0-6.357-5.153-11.51-11.51-11.51-6.355 0-11.508 5.153-11.508 11.51 0 6.355 5.153 11.508 11.509 11.508 0 0-6.356 0 0 0zM28.427 9.704a16.38 16.38 0 0 0-10.189-6.796 6.137 6.137 0 1 1 10.188 6.797s2.35 3.432 0 0zM11.585 2.908a16.38 16.38 0 0 0-10.19 6.796 6.124 6.124 0 0 1-.806-3.043 6.137 6.137 0 0 1 10.996-3.753s4.218-.87 0 0zm1.28 8.07h2.182l.035 7.96h-.215l.045 2.045h-2.046zm8.185 10.005v-2.045h-5.968l.01 2.045z"/></g></g></svg>