<svg xmlns="http://www.w3.org/2000/svg" width="28" height="30" viewBox="0 0 28 30"><g><g><path fill="#fff" d="M25.478 16.943c2.103 0 .922 5.53-.922 5.53.922 0 0 4.608-1.844 4.608 0 1.845-1.807 2.947-3.65 2.947-7.764 0-5.172-2.152-12.941-2.975v-.043h-.073l-.072-14.677h.145v-.044C13.013 10.181 19.947 5.001 19.947.35c1.527 0 5.458 1.448-.072 10.665h5.566c2.766 0 1.88 5.928.037 5.928-1.845 0 0 0 0 0zM6.048 27.046v-.036H4.025V12.333h1.951l.145-.044v-1.31H2.36c-1.014 0-2.421 1.712-2.421 3.234l.036 11.026c0 1.52 1.444 2.766 2.457 2.766h3.688v-.952a34.649 34.649 0 0 0-.073-.007z"/></g></g></svg>