<svg xmlns="http://www.w3.org/2000/svg" width="33" height="33" viewBox="0 0 33 33"><g><g><path fill="#fff" d="M16.87.47c8.89 0 16.096 7.205 16.096 16.095 0 8.89-7.207 16.095-16.095 16.095C7.98 32.66.776 25.454.776 16.565.776 7.675 7.98.47 16.87.47c0 0-8.889 0 0 0zm-6.035 16.095a6.035 6.035 0 0 0 6.036 6.035 6.035 6.035 0 0 0 6.035-6.035 6.035 6.035 0 0 0-6.035-6.036 6.035 6.035 0 0 0-6.036 6.036s0-3.335 0 0zm19.05 5.39a14.062 14.062 0 0 0 1.069-5.39c0-1.91-.381-3.73-1.07-5.392l-1.74.721-3.839 1.59c.395.95.613 1.99.613 3.08a8.034 8.034 0 0 1-.61 3.082l5.577 2.31s-.688 1.661 0 0zM16.871 2.483c-1.91 0-3.731.38-5.392 1.068l1.228 2.963 1.083 2.615a8.008 8.008 0 0 1 3.08-.61c1.091 0 2.132.216 3.081.61l2.31-5.578a14.068 14.068 0 0 0-5.39-1.068zM3.856 11.174a14.065 14.065 0 0 0-1.068 5.39c0 1.91.38 3.73 1.07 5.392l5.576-2.31a7.998 7.998 0 0 1-.61-3.081 8 8 0 0 1 .61-3.081L6.82 12.402l-2.963-1.228s.688-1.662 0 0zm7.623 18.405a14.061 14.061 0 0 0 5.392 1.069c1.91 0 3.729-.381 5.39-1.07L19.952 24a8.015 8.015 0 0 1-3.08.611 8.008 8.008 0 0 1-3.081-.61L12.2 27.84l-.72 1.74s-1.66-.689 0 0z"/></g></g></svg>