<svg xmlns="http://www.w3.org/2000/svg" width="20" height="19" viewBox="0 0 20 19"><g><g><path fill="#fff" d="M1.062 16.003L9.3 7.767a.976.976 0 0 1 .7-.286.975.975 0 0 1 .7.284l8.237 8.238a.982.982 0 0 1 0 1.387l-.694.694a.983.983 0 0 1-1.387 0L10 11.228l-6.856 6.856a.986.986 0 0 1-1.388 0l-.694-.694a.984.984 0 0 1 0-1.387zm0-7.173L9.3.594a.972.972 0 0 1 .7-.286.976.976 0 0 1 .7.284l8.237 8.238a.982.982 0 0 1 0 1.387l-.694.694a.982.982 0 0 1-1.387 0L10 4.054l-6.856 6.857a.985.985 0 0 1-1.388 0l-.694-.694a.984.984 0 0 1 0-1.387z"/></g></g></svg>