<svg xmlns="http://www.w3.org/2000/svg" width="10" height="11" viewBox="0 0 10 11"><g><g><path fill="#fff" d="M1.2.984L5.587 5.37a.524.524 0 0 1 .153.374c0 .135-.049.27-.152.372l-4.387 4.388a.523.523 0 0 1-.74 0l-.368-.37a.524.524 0 0 1 0-.739l3.651-3.651L.092 2.093a.523.523 0 0 1 0-.739l.37-.37a.525.525 0 0 1 .738 0zm3.82 0L9.408 5.37a.524.524 0 0 1 .153.373c0 .136-.05.271-.152.373l-4.388 4.388a.524.524 0 0 1-.739 0l-.37-.37a.523.523 0 0 1 0-.739l3.653-3.651-3.653-3.652a.524.524 0 0 1 0-.74l.37-.37a.526.526 0 0 1 .738 0z"/></g></g></svg>