<svg xmlns="http://www.w3.org/2000/svg" width="20" height="19" viewBox="0 0 20 19"><g><g><path fill="#fff" d="M18.938 2.684L10.7 10.92a.976.976 0 0 1-.7.285.975.975 0 0 1-.7-.284L1.063 2.684a.982.982 0 0 1 0-1.387l.694-.694a.983.983 0 0 1 1.387 0L10 7.459 16.856.603a.986.986 0 0 1 1.388 0l.694.694a.984.984 0 0 1 0 1.387zm0 7.173L10.7 18.094a.972.972 0 0 1-.7.285.976.976 0 0 1-.7-.284L1.063 9.857a.982.982 0 0 1 0-1.387l.694-.694a.982.982 0 0 1 1.387 0L10 14.633l6.856-6.857a.985.985 0 0 1 1.388 0l.694.694a.984.984 0 0 1 0 1.387z"/></g></g></svg>