<svg xmlns="http://www.w3.org/2000/svg" width="1099" height="64" viewBox="0 0 1099 64"><g><g><path fill="#707070" d="M1068 14.048l9.007-.032v27.96l-9.008-.032zm23.988 9.462v1.477h6.007v6.98l-6.007.032v10.009l-7.993.031V32l-4.972-.032-.032-7.01 4.972.03.032-1.79c0-3.656.131-5.553 1.822-7.392 1.721-1.86 4.348-2.807 7.806-2.807.975 0 1.849.03 2.607.098.788.064 1.503.162 2.149.298l.574.246V21l-1-.043c-.514-.058-1.108.076-1.642.025-.515-.045-.99.028-1.56.028-1.194 0-1.99.076-2.11.223-.2.246-.653.532-.653 2.277zm-30.027 7.344c.635 1.562 1.002 2.478 1.002 5.117l.031 6.012h-26.954c.83-1.13.731-1.665 2.109-2.461 3.227-1.862 7.867-2.518 14.189-2.518h1.702c-.013-.362-.024-.992-.033-1.31-.03-.563.05-1.179-.042-1.525-.174-.768-1.082-1.153-1.603-1.56-.54-.466-1.622-.977-3.97-.977-1.861 0-3.25.318-4.145.942-.781.547-1.22 1.18-1.256 2.384l-.005 1-9.03.031.145-.956c.3-4.785 3.021-11.02 14.564-11.02 2.112 0 4.066.713 5.678 1.08 1.684.378 3.214 1.027 4.544 1.93 1.365.906 2.398 2.197 3.074 3.83zm-32.998 5.592v5.568l-8.957-.031v-4.737c0-.998.084-2.007-.06-2.698-.133-.563-.088-.784-.348-1.111-.238-.301-.54-.519-.933-.657-.475-.171-1.095-.254-1.843-.254-1.068 0-2.152.28-3.224.839-1.01.535-2.51 1.458-3.578 2.645l-.006 5.953-9.004.02-.011-28.938h9.078l-.057 8.688c0 1.33.043 3.494.028 4.77-.006.278.048.838.048 1.11 2.397-1.85 5.357-3.606 8.16-3.606 7.473 0 10.707 4.382 10.707 12.439zM1006.61 64c-1.16 0-2.17-.14-3.038-.412-.863-.277-1.587-.66-2.166-1.153a4.854 4.854 0 0 1-1.317-1.768 6.127 6.127 0 0 1-.486-2.25h2.09c.055.622.224 1.16.496 1.62.274.457.63.835 1.057 1.136.429.297.92.52 1.477.66.552.14 1.144.211 1.778.211.616 0 1.174-.06 1.675-.193.498-.13.929-.314 1.287-.558.356-.242.631-.535.823-.879a2.36 2.36 0 0 0 .292-1.175c0-.448-.09-.835-.264-1.145-.18-.312-.472-.583-.87-.82-.4-.234-.93-.444-1.585-.63a32.554 32.554 0 0 0-2.404-.57c-.92-.21-1.716-.45-2.384-.72-.67-.262-1.215-.577-1.647-.939a3.45 3.45 0 0 1-.952-1.245c-.208-.469-.31-1.008-.31-1.614 0-.663.143-1.274.426-1.833a4.29 4.29 0 0 1 1.195-1.442 5.723 5.723 0 0 1 1.846-.947 7.858 7.858 0 0 1 2.385-.345c.922 0 1.763.117 2.52.345.757.224 1.407.549 1.959.975.551.426.986.943 1.298 1.554.318.612.49 1.3.51 2.07h-2.112c-.216-1.983-1.576-2.974-4.078-2.974-1.224 0-2.16.225-2.822.682-.66.451-.99 1.061-.99 1.831 0 .346.06.647.183.89.122.249.327.466.619.65.292.188.682.359 1.164.505.486.149 1.089.303 1.81.456.496.105.998.218 1.518.336.519.113 1.02.26 1.51.431.492.166.955.374 1.39.611.437.239.82.527 1.148.868.328.34.585.743.778 1.21.19.462.283 1.007.283 1.632 0 .718-.151 1.382-.453 1.982a4.734 4.734 0 0 1-1.266 1.56 6.22 6.22 0 0 1-1.932 1.028c-.746.247-1.56.37-2.44.37zm22.432-15.044l-5.032.031-.031 14.97-1.983.094V48.988l-4.966.03-.032-2.013h12.012zM1042.245 64c-1.021 0-1.89-.103-2.602-.31-.713-.205-1.307-.486-1.783-.838a4.043 4.043 0 0 1-1.13-1.23c-.274-.471-.265-.378-.407-.912-.144-.535-.261-1.462-.298-2.033-.038-.571-.026-1.35-.026-1.898v-9.744l1.956-.031v9.738c0 1.099.096 1.995.287 2.685.19.693.465 1.235.831 1.624.363.388.81.654 1.34.79.53.135 1.138.203 1.832.203a7.27 7.27 0 0 0 1.831-.21c.531-.141.978-.41 1.334-.803.356-.39 1.346-.933 1.53-1.62.187-.687.096-1.579.096-2.67l-.032-9.768 2.006.03v9.776c0 1.132.091 2.27-.103 3.167-.196.89-1.034 1.523-1.52 2.142-.486.618-1.147 1.092-1.977 1.419-.834.329-1.892.493-3.165.493zm26.67-8.593c0 5.534-2.756 8.55-8.345 8.55l-5.582.032.032-17.016 5.737.03c5.59 0 8.158 2.99 8.158 8.404zm-2.243 0c0-.955-.096-1.816-.284-2.58-.194-.765-.519-1.412-.985-1.944-.468-.53-1.096-.937-1.887-1.218-.795-.286-1.542-.71-2.749-.71l-3.792.032v12.988h3.542c1.198 0 2.44-.332 3.235-.62.794-.288 1.176-.734 1.645-1.283.472-.545.797-1.211.991-1.997.188-.784.284-1.675.284-2.668zm11.35 8.52l-2.017.03.03-16.922 1.924-.031zm13.183-16.938c1.143 0 2.194.208 3.151.615a7.31 7.31 0 0 1 2.481 1.726c.699.74 1.242 1.63 1.636 2.677.39 1.044.59 2.2.59 3.473 0 1.262-.198 2.414-.585 3.46-.387 1.042-.929 1.94-1.62 2.687a7.261 7.261 0 0 1-2.482 1.746c-.965.419-2.02.627-3.17.627-1.148 0-2.207-.208-3.166-.62a7.281 7.281 0 0 1-2.49-1.736c-.697-.743-1.24-1.64-1.628-2.688-.386-1.05-.58-2.207-.58-3.476 0-1.281.194-2.442.585-3.487.395-1.044.94-1.935 1.643-2.678a7.259 7.259 0 0 1 2.491-1.716 8.072 8.072 0 0 1 3.144-.61zm-.011 15.141c.817 0 1.57-.147 2.256-.447.69-.301 1.282-.735 1.779-1.306.5-.57.888-1.27 1.166-2.095.28-.824.42-1.76.42-2.802 0-1.045-.14-1.98-.42-2.8-.278-.823-.666-1.511-1.166-2.076a4.98 4.98 0 0 0-1.765-1.289 5.534 5.534 0 0 0-2.223-.441c-.815 0-1.571.149-2.263.446a5.09 5.09 0 0 0-1.79 1.302c-.5.566-.894 1.26-1.173 2.077-.279.815-.415 1.743-.415 2.781 0 1.042.136 1.978.41 2.802.276.825.663 1.524 1.16 2.095a4.987 4.987 0 0 0 1.772 1.306c.683.3 1.437.447 2.252.447z"/></g><g><path fill="#707070" d="M852.249 42.993l-4.548-.033-5.69.035c0-.44-.021-1.306-.014-1.76.01-.453.045-.833.048-1.26l2.236-.006h.004c.067 0 .7-.035.7-.577l.052-.84a967.995 967.995 0 0 1-.031-12.816l-.01-.782-.777.031h-.621l-.095.278c-2.38 6.826-4.39 11.388-6.24 15.711-.251.002-.573.007-.939.012-.648.013-1.424-.007-2.112-.007-2.07-4.95-3.457-8.227-5.637-14.845l-.406-1.158h-.763l-.403-.032-.038.47c-.06 3.691.066 5.81.029 7.575-.046 2.183.033 4.339-.005 6.521l.056.457.613.023 2.377.05c0 .858-.068 2.058-.09 2.937l-5.335.032h-4.611l.031-2.968 2.538-.072.085-.002.075-.04c.29-.145.353-.37.353-.535.035-5.55-.165-12.081-.076-18.282l.037-1.146-.487.042-1.57-.042c.004-.488.046-1.436.051-1.943.008-.486-.016-1.506-.013-1.964l9.934-.033c1.215 3.285 3.427 11.075 5.226 16.386l.3.887.097.28h.91l.097-.275c.78-2.206 1.61-4.57 2.435-6.919 1.23-3.504 2.95-7.57 3.956-10.393l9.01.034c0 .453.026 1.602.018 2.085-.009.507-.016 1.327-.021 1.821l-2.519.003-.069.034c-.274 0-.474.623-.474.945.025 3.075.068 5.767.08 9.199.008 3.199-.016 4.916.004 7.942l.036 1.93.552-.014 2.42.004c0 .856-.004 2.107-.028 2.986zm27.676-.037l-4.323.04h-6.59c0-.904-.035-2.061-.01-2.963l1.964-.104a.54.54 0 0 0 .417-.227.571.571 0 0 0 .072-.522c-.072-.22-.163-.522-.266-.854-.188-.622-.402-1.327-.567-1.746-.044-.184-.211-.622-.671-.622l-7.643.02-.325.225-.07.316c-.08.363-.183.766-.285 1.172-.16.622-.32 1.26-.419 1.79l-.089.463.468.027 2.395.064c0 .875-.042 2.061-.067 2.96h-9.926c.006-.899.114-2.088.147-2.962l1.844-.062c.242 0 .518-.209.608-.488 2.642-7.043 6.253-17.214 8.539-23.456.83-.06 2.57-.028 5.066-.028 1.324 3.857 2.896 8.916 4.418 13.473 1.223 3.67 2.412 7.239 3.415 10.177l.085.259.27.02 1.648.136c0 .876-.018 1.452-.043 2.35zm-14.122-19.425c-.575 1.862-1.168 3.799-1.736 5.665l-.792 1.828c-.035.137-.378 2.073-.218 2.278l.03-.306h5.848l.688.031-.669-2.038c-.59-1.857-.546-2.046-1.207-4.267-.316-1.058-.633-2.131-.955-3.188l-.088-.294h-.81zm31.402 17.936c-.937-1.714-1.829-3.946-2.748-6.142l-.368-.868c-.573-1.37-1.11-2.506-2.296-2.506-.49 0-1.196-.057-1.392.012l-.275.656-.127.294-.045 6.56.124.518.389.022 2.518-.024c-.025.89-.028 2.104-.028 2.991l-6.088.032-4.82-.063c.022-.89-.004-2.072-.004-2.96l1.575.024c.296 0 .509-.277.509-.535l-.178-17.518.032-1.96-.3-.017-1.649-.038c0-.921-.024-3.043-.004-3.942 3.605-.054 6.536-.016 9.081-.016 2.311 0 3.583.562 5.974 1.13 3.452.763 5.868 3.886 5.868 6.32 0 3.061-2.056 5.526-5.147 6.813l-.252.105v.785l.23.11c1.523.733 2.452 2.675 3.987 5.892l.486 1.02c.41.93.787 1.66 1.572 1.726l1.078.173c-.001.433.081.936.074 1.378-.007.452-.017 1.058-.02 1.51-.317.005-.284-.02-.664-.014-.565.01-.797.022-1.191.022-.473 0-1.707.01-2.837.022-.87.007-1.744-.048-2.22-.043zm-6.719-22.236l-.28.093-.283.329.076 9.643.119.454.317.234c.216.052.594.052 1.214.052 2.911 0 4.743-2.209 4.743-5.261 0-3.187-1.957-5.686-4.457-5.686-.717 0-1.137.042-1.449.142zm23.675 23.693c-1.432 0-4.292.094-6.046-.474-.281-2.239-.533-4.447-.781-6.624l-.273-.469c1.219-.257 2.71-.478 3.807-.623l1.061 3.773c.099.317.246.523.43.619.779.552 1.795.879 2.936.879.982 0 2.325-.277 3.148-.96.746-.597 1.143-1.484 1.143-2.558 0-2.396-1.325-2.89-4.52-4.085-4.727-1.784-7.123-4.409-7.123-7.793 0-3.019 1.674-4.978 2.672-5.878 1.8-1.647 4.826-2.742 8.518-2.742 2.333 0 4.208.5 5.11.815.22 2.29.628 4.658.786 6.988-1.037.153-2.429.26-3.568.389l-.158.019-.862-3.51a1.127 1.127 0 0 0-.275-.487c-.593-.5-1.464-1.126-2.353-1.126-1.075 0-1.989.622-2.72 1.172a3.361 3.361 0 0 0-1.282 2.7c0 2.363 1.114 2.858 4.984 4.206 4.669 1.612 6.659 3.828 6.659 7.42 0 2.55-1.056 4.855-2.898 6.318-1.953 1.557-4.453 2.03-8.27 2.03zM795.824 19.582c0 4.207-3.39 7.617-7.57 7.617-4.183 0-7.572-3.41-7.572-7.617s3.39-7.615 7.572-7.615c4.18 0 7.57 3.408 7.57 7.615zm0 20.185c0 4.207-3.39 7.619-7.57 7.619-4.183 0-7.572-3.412-7.572-7.619 0-4.204 3.39-7.617 7.572-7.617 4.18 0 7.57 3.413 7.57 7.617zm16.473-10.09c0 4.207-3.395 7.614-7.574 7.614-4.182 0-7.573-3.407-7.573-7.615 0-4.207 3.391-7.618 7.573-7.618 4.18 0 7.574 3.411 7.574 7.618z"/></g><g><path fill="#707070" d="M629.691 24.506c1.364 1.443 2.24 3.063 2.24 5.195l.063 9.532.063 1.792-1.02-.063-3.022-.062-.049-.063v-1.166l.032-9.717c0-1.159-.563-2.077-1.207-2.803-.609-.651-1.378-.974-2.345-.974-1.046 0-1.89.323-2.58.983-.729.685-1.08 1.61-1.08 2.828l.187 9.683v1.291h-.984l-2.461.031-.456-.062v-1.229l-.062-9.78c0-1.161-.531-2.045-1.176-2.771-.606-.651-1.377-.974-2.344-.974-1.045 0-1.89.323-2.578.983-.73.685-.893 1.64-.893 2.859l-.063 9.714v1.198l-.891.031-2.46.063-.55-.047-.063-1.088.031-16.038-.062-.728.83-.125 2.211.03.892-.03-.063.478v.385c1.12-.933 2.563-1.87 4.249-1.87 1.233 0 2.36.795 3.409 1.44a6.51 6.51 0 0 1 1.802 1.649c.801-.986 1.866-1.73 3.18-2.217.718-.27 1.5-.873 2.39-.873.898 0 1.804.647 2.63.998a6.826 6.826 0 0 1 2.2 1.517zm18.458.623c1.575 1.697 1.81 3.8 1.81 6.382 0 2.583-.235 4.811-1.806 6.505-1.68 1.776-3.876 2.956-6.536 2.956-2.659 0-4.856-1.18-6.528-2.953-1.577-1.697-2.123-3.862-2.123-6.445 0-2.582.546-4.748 2.117-6.44 1.678-1.774 3.844-3.174 6.502-3.174 2.66 0 4.889 1.4 6.564 3.169zm-1.124 6.477c0-1.58-.923-2.868-1.793-3.88-.886-1.044-2.099-1.768-3.647-1.768-1.545 0-2.695.724-3.577 1.762-.874 1.018-1.986 2.337-1.986 3.917 0 1.577 1.112 2.776 1.98 3.789.888 1.04 2.07 1.546 3.615 1.546 1.548 0 2.73-.506 3.613-1.544.872-1.015 1.795-2.246 1.795-3.822zm19.943-6.477c1.576 1.697 1.997 3.894 1.997 6.477 0 2.582-.421 4.716-1.993 6.41-1.68 1.776-3.906 2.956-6.567 2.956-2.657 0-4.824-1.18-6.5-2.953-1.574-1.697-1.9-3.862-1.9-6.445 0-2.582.326-4.748 1.897-6.44 1.678-1.774 3.877-3.174 6.534-3.174 2.66 0 4.858 1.4 6.532 3.169zM666 31.574c0-1.58-1.079-2.836-1.949-3.849-.887-1.043-2.068-1.736-3.616-1.736-1.546 0-2.725.693-3.608 1.73-.875 1.019-1.86 2.275-1.86 3.855 0 1.577.985 2.839 1.856 3.852.884 1.04 2.066 1.546 3.612 1.546 1.548 0 2.73-.506 3.611-1.544.875-1.015 1.954-2.277 1.954-3.854zm18.356-7.068c1.486 1.443 2.654 2.818 2.654 5.179l.031 9.517-.03 1.698-.956-.031-3.024.093-.015-.031-.032-1.135V30.31c0-1.299-.723-2.293-1.444-3.04-.707-.735-1.61-1.28-2.755-1.28-1.183 0-2.161.565-2.983 1.338-.807.781-.829 1.801-.829 3.047l-.03 9.265-.063 1.29h-.988l-1.741.032-1.171-.031.062-1.01-.031-15.788.062-2.072.89-.062h2.023l.925-.032.094.041-.063 2.068c.309-.26.292-.467.639-.688.975-.616 2.096-1.397 3.334-1.397 1.182 0 2.225.637 3.098.971.89.342 1.677.861 2.343 1.544zm19.201.635c1.586 1.733 2.424 3.897 2.424 6.433s-.838 4.703-2.428 6.439c-1.605 1.773-3.784 2.96-6.471 2.96-1.963 0-3.837-.873-5.16-1.98l.031 6.845-.031 1.133-.393-.032-2.586.063-.954.03V22.002h3.384l.611.031-.03 1.32.062.817c1.339-1.094 3.173-2.178 5.228-2.178 2.578 0 4.704 1.37 6.313 3.15zm-6.64 11.831c1.533 0 2.741-.51 3.692-1.56.905-1.01 1.346-2.266 1.346-3.838s-.441-2.827-1.346-3.837c-.95-1.051-2.159-1.78-3.691-1.78-1.547 0-2.728.725-3.614 1.763-.871 1.018-1.295 2.274-1.295 3.854s.424 2.839 1.294 3.852c.887 1.04 2.068 1.546 3.615 1.546zm13.88-14.004l.17.093v16.901l-.545.063-1.683-.031-.734-.063.031-.729-.03-13.725.03-2.51.735.032zm.126-5.896l.051.031v.445l-.031 2.205.094 1.26-.801.031-1.657-.094-.548.032v-4.003h.58zm18.929 16.883l1.135.062-.403.793c-.552 1.751-1.572 3.177-3.033 4.242-1.534 1.089-3.362 1.89-5.442 1.89-2.616 0-4.782-1.152-6.434-2.926-1.595-1.713-2.683-3.882-2.683-6.442s1.088-4.73 2.681-6.44c1.652-1.774 3.725-3.174 6.343-3.174 2.079 0 4.001 1.048 5.527 2.13 1.469 1.073 2.49 2.498 3.041 4.246l.277.64-1.01.03h-2.688l-.585.032-.097-.197a4.304 4.304 0 0 0-1.511-1.935c-.682-.491-1.446-.73-2.336-.73-.936 0-1.729.142-2.358.421-.63.277-1.167.66-1.594 1.139-.954 1.04-1.695 2.292-1.695 3.838 0 1.546.741 2.802 1.69 3.833.952 1.055 2.248 1.565 3.957 1.565.892 0 1.655-.239 2.336-.728a4.305 4.305 0 0 0 1.511-1.936l.003-.26.741-.031zm-30.916 16.437c-.319.37-.694.556-1.128.556a1.6 1.6 0 0 1-.699-.145 1.458 1.458 0 0 1-.512-.409 1.785 1.785 0 0 1-.314-.635 3.003 3.003 0 0 1-.106-.822c0-.322.044-.611.13-.868.083-.257.202-.476.35-.654a1.517 1.517 0 0 1 1.189-.555c.214 0 .414.034.593.098.178.068.346.166.497.296v-1.786h.699v5.385h-.7zm0-.665V47.88c-.315-.316-.662-.474-1.045-.474-.3 0-.538.127-.717.382-.18.255-.27.637-.27 1.15 0 .48.084.842.254 1.09.17.248.404.371.704.371.196 0 .383-.053.562-.166.18-.108.351-.279.512-.506zm6.452 1.22c-.286 0-.547-.046-.785-.137a1.73 1.73 0 0 1-.61-.399 1.892 1.892 0 0 1-.393-.642 2.491 2.491 0 0 1-.14-.865c0-.318.045-.604.135-.854.091-.253.219-.467.38-.644.163-.176.359-.31.586-.407.229-.091.48-.14.752-.14.284 0 .54.046.768.14.23.091.425.226.586.402.16.176.285.39.37.642.088.252.132.54.132.86v.167h-2.973c.015.226.057.422.121.588.065.166.15.304.256.415.106.11.227.19.365.244.137.056.288.082.45.082.117 0 .232-.015.347-.046.116-.032.22-.077.313-.137a.796.796 0 0 0 .224-.22.565.565 0 0 0 .09-.307h.737a1.369 1.369 0 0 1-.565.93c-.15.107-.322.189-.515.244a2.3 2.3 0 0 1-.63.085zm1.037-2.423c-.056-.37-.183-.65-.382-.834-.2-.19-.443-.284-.73-.284-.14 0-.272.024-.396.07a.947.947 0 0 0-.33.208 1.113 1.113 0 0 0-.244.35 1.696 1.696 0 0 0-.14.49zm5.517 2.424c-1.073 0-1.638-.42-1.695-1.26h.706c0 .475.329.711.98.711.147 0 .276-.015.387-.046a.874.874 0 0 0 .28-.13.557.557 0 0 0 .184-.667c-.028-.058-.087-.106-.171-.15a1.984 1.984 0 0 0-.348-.13c-.15-.043-.343-.094-.584-.156a7.458 7.458 0 0 1-.603-.173 1.4 1.4 0 0 1-.418-.207.734.734 0 0 1-.24-.303 1.11 1.11 0 0 1-.08-.452c0-.159.033-.307.104-.445.068-.14.166-.257.295-.358.128-.101.282-.178.464-.235.181-.058.385-.087.607-.087 1.038 0 1.565.365 1.582 1.093h-.694c-.025-.365-.302-.547-.834-.547-.118 0-.228.011-.33.035a.92.92 0 0 0-.26.099.495.495 0 0 0-.174.162.398.398 0 0 0-.061.223c0 .074.01.14.029.188.017.048.064.093.137.137.073.04.181.08.325.122.142.041.337.092.586.152.241.058.447.117.622.177.177.06.322.135.442.222a.797.797 0 0 1 .26.32c.057.124.083.281.083.468 0 .176-.036.338-.109.488a1.207 1.207 0 0 1-.317.392 1.48 1.48 0 0 1-.498.262 2.153 2.153 0 0 1-.657.095zm5.451-4.73h-.697v-.75h.697zm0 4.635h-.697v-3.895h.697zm6.932-.302c0 1.257-.574 1.884-1.718 1.884-.249 0-.471-.027-.67-.08a1.61 1.61 0 0 1-.506-.234 1.054 1.054 0 0 1-.432-.871h.727c0 .428.286.645.86.645.167 0 .316-.022.446-.06a.69.69 0 0 0 .325-.21c.09-.101.156-.235.199-.406.049-.169.072-.38.072-.64v-.187c-.32.37-.697.556-1.129.556-.266 0-.498-.048-.7-.145a1.458 1.458 0 0 1-.512-.41 1.801 1.801 0 0 1-.313-.634 2.968 2.968 0 0 1-.106-.822c0-.322.043-.611.128-.868s.201-.476.353-.654a1.522 1.522 0 0 1 1.187-.556c.215 0 .412.035.592.099.18.068.346.166.5.296v-.296h.698zm-.697-.824V47.88c-.315-.316-.664-.474-1.045-.474a.84.84 0 0 0-.72.382c-.18.255-.268.637-.268 1.15 0 .48.084.842.253 1.09.169.248.405.371.706.371.193 0 .38-.053.56-.166.18-.108.35-.279.514-.506zm4.696-2.276c.173-.197.36-.346.557-.444.198-.1.405-.147.619-.147.895 0 1.338.48 1.338 1.445v2.548h-.705v-2.518c0-.16-.014-.297-.043-.41a.656.656 0 0 0-.13-.281.52.52 0 0 0-.226-.156 1.023 1.023 0 0 0-.332-.048c-.36 0-.719.206-1.078.62v2.793h-.698v-3.895h.698zm-156.24-5.914a20.938 20.938 0 0 1-1.38-.555 17.26 17.26 0 0 1-3.225-10.055c0-9.66 7.928-17.488 17.709-17.488 5.149 0 9.782 2.172 13.016 5.637a21.336 21.336 0 0 0-9.835-.09c-5 1.126-8.394 5.486-8.449 10.338a5.407 5.407 0 0 0-.242 1.603c0 3.004 2.466 5.438 5.51 5.438.602 0 1.182-.097 1.725-.276.025-.005.052-.006.078-.012-.02.06-.039.12-.06.177-1.523 4.16-5.8 6.883-10.437 6.32a20.495 20.495 0 0 1-4.41-1.037zm27.076-8.78a19.676 19.676 0 0 1 1.723 6.26c-2.909 5.494-8.685 9.268-15.37 9.389a20.844 20.844 0 0 0 3.887-3.263 21.18 21.18 0 0 0 2.817-3.803c2.563-4.434 1.584-9.908-2.065-13.226-.182-.165-.382-.314-.576-.466a5.516 5.516 0 0 0-3.455-2.079c3.81-1.166 8.121.043 10.693 3.353a19.872 19.872 0 0 1 2.346 3.835zm3.734-1.83c0 2.234-.43 4.37-1.202 6.335a20.741 20.741 0 0 0-4.044-8.974c-3.15-4.046-8.643-5.266-13.15-3.221-.58.26-1.14.581-1.68.954a5.515 5.515 0 0 0-1.56 1.093 9.763 9.763 0 0 1 7.347-7.118 20.248 20.248 0 0 1 10.796.5 17.286 17.286 0 0 1 3.493 10.43zM583.602 48.34a17.739 17.739 0 0 1-11.594-5.739c1.389.474 2.846.817 4.362 1 5.129.623 9.863-2.387 11.548-6.994.135-.37.252-.752.347-1.142.076-.063.153-.125.224-.192 1.338-.992 2.208-2.567 2.208-4.347 0-.249-.022-.493-.056-.73 2.274 3 2.672 7.167.663 10.629a19.954 19.954 0 0 1-2.675 3.615 20.013 20.013 0 0 1-5.027 3.9z"/></g><g><path fill="#707070" d="M520.302 27.352c-2.334 0-4.234-1.92-4.234-4.275 0-2.36 1.9-4.277 4.234-4.277 2.335 0 4.23 1.917 4.23 4.277 0 2.355-1.895 4.275-4.23 4.275zm0-8.003c-2.034 0-3.69 1.67-3.69 3.728 0 2.052 1.656 3.724 3.69 3.724 2.033 0 3.69-1.672 3.69-3.724 0-2.058-1.657-3.728-3.69-3.728zm-1.5 1.46a8.88 8.88 0 0 1 1.397-.099c.69 0 1.171.105 1.503.368.275.225.428.551.428.984 0 .6-.42 1.01-.822 1.154v.023c.325.133.505.444.623.878.143.528.288 1.143.378 1.325h-1.075c-.077-.14-.187-.517-.324-1.095-.125-.585-.324-.744-.753-.754h-.316v1.849h-1.04zm1.039 2.02h.413c.525 0 .835-.266.835-.676 0-.433-.29-.649-.774-.657-.257 0-.4.02-.474.035zM385.654 41.896l.023-.03h-11.992s1.634-.695 2.929-1.128c.394-.133.638-.28.807-.425a4.607 4.607 0 0 1-1.239-3.141c0-2.543 2.042-4.61 4.561-4.61.903 0 1.74.273 2.45.733-.203.583-.34 1.184-.34 1.789 0 1.332.57 2.535 1.485 3.501-.465-.864-.755-1.838-.755-2.89 0-3.363 2.7-6.09 6.026-6.09 3.326 0 6.024 2.727 6.024 6.09a6.06 6.06 0 0 1-.673 2.742c.826-.936 1.32-2.095 1.32-3.353 0-.93-.303-1.843-.795-2.691.383-.104.771-.18 1.182-.18 2.273 0 4.132 1.724 4.418 3.94-1.177.482-2.116 1.495-2.597 2.781l.187.022c.785-1.308 2.192-2.19 3.815-2.19 2.1 0 3.85 1.468 4.33 3.436.155.182.43.386.954.562 1.292.433 2.926 1.132 2.926 1.132zm7.77-20.916s-1.58.934-2.684.93h-.014c-.768.024-2.68-.93-2.68-.93l-3.675 1.45c.229-3.072 1.779-4.928 3.1-7.305C386.495 3.646 390.52.792 390.52.792s4.452 2.854 3.476 14.333c1.321 2.377 2.87 4.233 3.102 7.305l-3.674-1.45zm-1.371 3.36l.66 4.206-1.109-1.052c-.092-.017-.23.585-.324.585-.068 0-.312.642-.38.649-.073-.007-.198-.649-.266-.649-.094 0-.232-.602-.324-.585l-1.109 1.052.66-4.205-1.055 1.148.934-2.725c.261.215.96.625 1.224.644.271-.02.948-.43 1.212-.644l.932 2.725zm27.553 17.223h-3.204l3.637-17.75h4.755c.76 0 1.413.028 1.96.08a7.724 7.724 0 0 1 1.437.265c1.156.337 2.003.868 2.542 1.594.538.725.808 1.578.808 2.56a6.66 6.66 0 0 1-.297 2.015 4.884 4.884 0 0 1-.93 1.698c-.425.506-.967.94-1.63 1.314-.66.371-1.454.664-2.382.875v.053l3.9 7.296h-3.545l-3.52-6.87h-2.127zm1.97-9.59h1.233c.588 0 1.11-.02 1.577-.062a6.513 6.513 0 0 0 1.246-.217c.832-.23 1.487-.604 1.968-1.12.484-.519.723-1.187.723-2.01 0-.426-.095-.797-.288-1.114-.193-.32-.508-.553-.947-.703a3.796 3.796 0 0 0-.81-.16c-.336-.038-.75-.054-1.25-.054h-2.336zm20.86-8.49c1.025 0 1.954.143 2.79.43a5.82 5.82 0 0 1 2.147 1.287c.595.571 1.052 1.279 1.378 2.125.322.843.485 1.818.485 2.923 0 .69-.072 1.455-.217 2.295a13.907 13.907 0 0 1-.704 2.551 13.587 13.587 0 0 1-1.258 2.523 9.567 9.567 0 0 1-1.884 2.175 9.07 9.07 0 0 1-2.58 1.527c-.98.383-2.096.577-3.347.577-1.025 0-1.956-.145-2.792-.432a5.768 5.768 0 0 1-2.144-1.286c-.596-.57-1.055-1.279-1.38-2.124-.325-.843-.485-1.82-.485-2.926a14.164 14.164 0 0 1 .917-4.847c.326-.863.745-1.703 1.261-2.521a9.602 9.602 0 0 1 1.884-2.176c.74-.631 1.6-1.14 2.579-1.524.982-.386 2.098-.578 3.35-.578zm-.223 2.745c-.708 0-1.362.123-1.957.37a5.847 5.847 0 0 0-1.621 1.016 7.128 7.128 0 0 0-1.286 1.508 9.539 9.539 0 0 0-.934 1.843c-.248.653-.439 1.332-.564 2.035a11.528 11.528 0 0 0-.191 2.063c0 .673.088 1.264.263 1.771.176.51.426.935.754 1.282.328.344.73.6 1.202.774.473.172 1.003.26 1.59.26.708 0 1.361-.125 1.955-.372a5.764 5.764 0 0 0 1.622-1.018 7.161 7.161 0 0 0 1.287-1.502c.37-.576.683-1.19.932-1.844a11.61 11.61 0 0 0 .563-2.036 11.6 11.6 0 0 0 .192-2.065c0-1.344-.34-2.36-1.017-3.05-.68-.69-1.609-1.035-2.79-1.035zm19.504 0c-.754 0-1.458.11-2.114.332a6.289 6.289 0 0 0-3.13 2.295 8.44 8.44 0 0 0-.98 1.732 9.8 9.8 0 0 0-.589 1.964 10.88 10.88 0 0 0-.198 2.073c0 .896.119 1.634.361 2.215.241.585.571 1.048.99 1.39.421.338.914.577 1.477.715a7.584 7.584 0 0 0 1.805.206c.701.008 1.421-.056 2.16-.194a15.1 15.1 0 0 0 2.227-.59l-.578 2.866c-.71.246-1.472.418-2.284.517-.814.098-1.55.147-2.206.147-1.06 0-2.03-.136-2.909-.406a5.914 5.914 0 0 1-2.262-1.254c-.633-.565-1.125-1.29-1.472-2.175-.35-.884-.527-1.937-.527-3.157 0-.867.087-1.752.256-2.654.171-.902.435-1.775.79-2.62a11.95 11.95 0 0 1 1.337-2.386 9.038 9.038 0 0 1 1.924-1.957c.744-.558 1.608-.998 2.588-1.32a10.13 10.13 0 0 1 3.176-.485c.62 0 1.332.06 2.134.173.8.116 1.546.287 2.238.518l-.538 2.653a16.593 16.593 0 0 0-1.853-.445c-.576-.1-1.187-.153-1.823-.153zm4.388 15.335l3.637-17.75h3.204l-1.616 7.894h.054l7.272-7.893h3.966l-8.39 8.928 5.58 8.821h-3.688l-5.082-8.199h-.052l-1.68 8.2zm19.399-2.72h8.283l-.55 2.72h-11.488l3.636-17.75H496.4l-.565 2.72h-7.796l-.947 4.59h6.694l-.55 2.72h-6.697zm18.994 2.72h-3.203l3.087-15.03h-5.517l.54-2.72h14.247l-.553 2.72h-5.515z"/></g><g><path fill="#707070" d="M227.205 12.909L223.75 30.04c-.35 1.749-.874 3.296-1.549 4.597-.695 1.324-1.568 2.43-2.599 3.293a10.092 10.092 0 0 1-3.62 1.934c-1.328.41-2.827.615-4.45.615-1.506 0-2.832-.176-3.945-.52-1.153-.357-2.118-.887-2.87-1.57a5.948 5.948 0 0 1-1.65-2.52c-.317-.928-.478-1.974-.478-3.11 0-.951.123-1.978.36-3.05l3.417-17.115.127-.64h6.591l-.19.954-3.439 17.251c-.147.778-.222 1.471-.222 2.051 0 .47.054.88.16 1.214.097.297.238.54.435.739.183.183.456.33.811.435.412.116.92.177 1.516.177.721 0 1.37-.09 1.93-.27a3.54 3.54 0 0 0 1.37-.829c.403-.399.752-.915 1.033-1.54.293-.66.541-1.491.73-2.472l3.438-17.07.128-.64h6.611zm-23.405-.003l-3.756 18.957a10.961 10.961 0 0 1-1.287 3.374 10.348 10.348 0 0 1-2.297 2.719 10.464 10.464 0 0 1-3.223 1.807c-1.221.437-2.608.658-4.12.658-.721 0-1.436-.068-2.13-.2a11.415 11.415 0 0 1-1.97-.55 9.824 9.824 0 0 1-1.77-.895 8.06 8.06 0 0 1-1.463-1.22l-.463-.5.421-.535 2.767-3.525.569-.72.633.664c.216.23.46.45.725.661a4.88 4.88 0 0 0 1.848.917c.353.092.756.14 1.197.14.357 0 .75-.074 1.176-.216.412-.136.82-.37 1.214-.69.388-.317.742-.76 1.05-1.312.32-.568.572-1.302.754-2.172l2.537-12.61h-9.558l.19-.956.828-4.11.128-.637h16.191zm43.258 11.07a10.835 10.835 0 0 1-2.504 3.876c-1.11 1.114-2.525 2.01-4.204 2.672-1.67.653-3.647.984-5.878.984h-2.134l-1.553 7.865-.128.64h-6.596l.19-.95 5.298-26.468.128-.64h8.151c1.786 0 3.324.2 4.576.592 1.277.403 2.334.961 3.139 1.656.818.705 1.422 1.534 1.795 2.463.36.907.542 1.849.542 2.81 0 1.546-.273 3.06-.822 4.5zm-6.04-3.736c0-.348-.053-.687-.155-1.01a1.68 1.68 0 0 0-.48-.73c-.25-.229-.621-.422-1.099-.579-.513-.16-1.208-.243-2.061-.243H235.1l-1.639 8.107h1.698c.909 0 1.734-.145 2.454-.439a5.359 5.359 0 0 0 1.825-1.18 5.376 5.376 0 0 0 1.163-1.757c.276-.67.416-1.397.416-2.169zm74.724 6.321c-.523.288-1.087.534-1.687.734.256.3.498.653.72 1.059.272.495.535 1.085.778 1.75.241.656.496 1.439.756 2.33l1.822 6.57.28 1.01h-7.267l-.148-.608-1.618-6.6c-.192-.827-.403-1.507-.635-2.038-.208-.473-.439-.843-.688-1.1a1.753 1.753 0 0 0-.731-.463 3.683 3.683 0 0 0-1.097-.146h-.115l-2.037 10.314-.127.64h-6.594l.191-.95 5.296-26.468.127-.642h8.23c1.298 0 2.501.11 3.576.33 1.115.23 2.087.603 2.892 1.108a5.547 5.547 0 0 1 1.956 2.078c.451.846.68 1.872.68 3.052 0 1.152-.179 2.247-.529 3.258a8.683 8.683 0 0 1-1.558 2.753 8.887 8.887 0 0 1-2.473 2.03zm-2.285-6.964c0-.87-.356-1.205-.625-1.382-.356-.238-1.109-.518-2.685-.518h-1.756l-1.174 5.882h.79c.88 0 1.68-.096 2.39-.287.676-.183 1.248-.447 1.701-.788.441-.334.77-.73 1.007-1.215.232-.48.352-1.054.352-1.692zm-61.772-7.642h6.757l-1.231 5.682-3.339 16.696-1.16 5.68h-6.7l1.183-5.68 3.361-16.696zm45.746 15.85l-.125.646h-6.9l.124-.647.788-4.11.18-.946h6.903l-.182.946zm-11.636 6.406h10.832l-.188.948-.829 4.214-.126.644h-17.51l.192-.954 4.275-21.368h-9.463l-4.298 21.678-.127.64h-6.712l.187-.95 4.25-21.43h-7.222l.164-.893.869-4.153.132-.632h23.367v-.002H301.1l-.197.956-.867 4.215-.13.635h-10.832l-1.013 4.989-1.11 5.703zm-82.93 19.623l1.209-5.998h1.512c.775 0 1.357.165 1.751.494.394.33.59.838.59 1.53 0 .122-.007.273-.021.453a5.392 5.392 0 0 1-.272 1.239c-.079.227-.18.45-.306.668-.125.216-.28.42-.462.618-.18.197-.395.368-.642.514a3.384 3.384 0 0 1-.851.35c-.32.088-.685.132-1.092.132zm4.213-3.937c0-.25-.034-.458-.098-.631a1.028 1.028 0 0 0-.298-.425 1.23 1.23 0 0 0-.499-.24c-.199-.05-.431-.078-.695-.078h-.733l-.927 4.603h.558c.302 0 .57-.034.807-.104.236-.07.445-.167.63-.288.181-.121.34-.26.472-.42.132-.16.246-.326.338-.506.095-.176.171-.356.228-.54a4.517 4.517 0 0 0 .217-1.37zm8.842 3.937h-3.43l1.206-5.998h3.432l-.143.687h-2.605l-.378 1.86h2.503l-.133.69h-2.505l-.415 2.063h2.606zm9.94-5.998l-3.26 5.998H221.5l-.795-5.998h.886l.495 4.043.117 1.184.628-1.184 2.112-4.043zm5.882 5.998h-3.429l1.207-5.998h3.43l-.141.687h-2.606l-.38 1.86h2.505l-.132.69h-2.505l-.415 2.063h2.605zm8.255 0h-3.468l1.21-5.998h.83l-1.07 5.3h2.637zm5.89.082c-.616 0-1.076-.175-1.383-.526-.309-.35-.462-.847-.462-1.491a5.734 5.734 0 0 1 .334-1.902 4.77 4.77 0 0 1 .422-.867c.168-.273.366-.51.593-.713.225-.203.482-.363.767-.485.287-.118.601-.179.946-.179.611 0 1.071.177 1.378.53.308.35.46.847.46 1.49 0 .308-.027.626-.081.953-.056.324-.14.642-.252.95a4.866 4.866 0 0 1-.42.87 3.276 3.276 0 0 1-.592.711 2.677 2.677 0 0 1-.767.482c-.286.119-.6.177-.944.177zm2.216-4.082c0-.21-.02-.397-.06-.566a1.211 1.211 0 0 0-.198-.43.932.932 0 0 0-.338-.273 1.108 1.108 0 0 0-.496-.1c-.249 0-.475.056-.68.17a1.914 1.914 0 0 0-.538.448 2.873 2.873 0 0 0-.41.633 5.128 5.128 0 0 0-.498 2.126c0 .21.022.395.062.563.043.167.107.309.195.428.086.119.2.211.338.276.139.063.305.097.498.097.25 0 .476-.055.678-.166.203-.114.383-.263.542-.447.158-.186.295-.397.409-.634.113-.238.207-.48.281-.73.073-.249.128-.497.163-.739.035-.24.052-.462.052-.656zm5.253 1.848l-.439 2.152h-.82l1.207-5.998h1.656c.273 0 .53.03.767.085.239.057.447.144.625.264.18.119.319.273.42.46.102.186.15.409.15.67a2.177 2.177 0 0 1-.312 1.117 2.416 2.416 0 0 1-.929.89c-.204.111-.435.199-.69.264a3.36 3.36 0 0 1-.842.096zm2.706-2.296c0-.274-.101-.488-.301-.637-.2-.15-.498-.226-.899-.226h-.875l-.494 2.472h.729c.242 0 .457-.027.642-.078.187-.049.348-.117.485-.2a1.409 1.409 0 0 0 .56-.633c.055-.119.094-.238.117-.358.024-.122.036-.236.036-.34zm9.259 4.448h-.804l.632-3.74.236-1.435-.452.833-1.36 2.387h-.567l-.396-2.295-.094-.925-.32 1.5-.84 3.675h-.775l1.498-5.998h.935l.36 2.258.103.763.42-.763 1.299-2.258h1.042zm8.37 0h-3.429l1.207-5.998h3.43l-.142.687h-2.604l-.38 1.86h2.505l-.134.69h-2.505l-.415 2.063h2.606zm7.108 0h-1.03l-1-3.74-.277-1.202-.603 3.023-.387 1.919h-.766l1.212-5.998h1.02l.954 3.543.328 1.372.644-3.212.346-1.703h.766zm9.316-5.3h-1.783l-1.066 5.3h-.829l1.063-5.3h-1.784l.145-.698h4.397z"/></g><g><path fill="#707070" d="M69 14.048l9.007-.032v27.96l-9.008-.032zm23.988 9.462v1.477h6.007v6.98L92.988 32v10.009l-7.993.031V32l-4.972-.032-.032-7.01 4.972.03.032-1.79c0-3.656.131-5.553 1.821-7.392 1.722-1.86 4.35-2.807 7.807-2.807.975 0 1.849.03 2.607.098.787.064 1.502.162 2.149.298l.574.246V21l-1-.043c-.514-.058-1.108.076-1.642.025-.515-.045-.99.028-1.56.028-1.194 0-1.99.076-2.11.223-.199.246-.653.532-.653 2.277zm-30.027 7.344c.635 1.562 1.002 2.478 1.002 5.117l.031 6.012H37.04c.83-1.13.732-1.665 2.109-2.461 3.227-1.862 7.867-2.518 14.189-2.518h1.702c-.013-.362-.024-.992-.033-1.31-.03-.563.05-1.179-.042-1.525-.174-.768-1.082-1.153-1.603-1.56-.54-.466-1.622-.977-3.97-.977-1.861 0-3.25.318-4.145.942-.78.547-1.22 1.18-1.256 2.384l-.005 1-9.03.031.145-.956c.3-4.785 3.021-11.02 14.564-11.02 2.112 0 4.066.713 5.678 1.08 1.684.378 3.214 1.027 4.544 1.93 1.365.906 2.398 2.197 3.074 3.83zm-32.998 5.592v5.568l-8.957-.031v-4.737c0-.998.084-2.007-.06-2.698-.133-.563-.088-.784-.348-1.111-.238-.301-.54-.519-.933-.657-.475-.171-1.095-.254-1.843-.254-1.068 0-2.152.28-3.224.839-1.01.535-2.51 1.458-3.578 2.645l-.006 5.953-9.004.02-.011-28.938h9.078l-.057 8.688c0 1.33.043 3.494.028 4.77-.006.278.048.838.048 1.11 2.397-1.85 5.357-3.606 8.16-3.606 7.473 0 10.707 4.382 10.707 12.439zM7.61 64c-1.16 0-2.17-.14-3.038-.412-.863-.277-1.587-.66-2.166-1.153a4.854 4.854 0 0 1-1.317-1.768 6.127 6.127 0 0 1-.486-2.25h2.09c.055.622.224 1.16.496 1.62.274.457.63.835 1.057 1.136.429.297.92.52 1.477.66.552.14 1.144.211 1.779.211.615 0 1.173-.06 1.674-.193.498-.13.929-.314 1.287-.558.356-.242.631-.535.823-.879a2.36 2.36 0 0 0 .292-1.175c0-.448-.09-.835-.264-1.145-.18-.312-.472-.583-.87-.82-.4-.234-.93-.444-1.585-.63a32.554 32.554 0 0 0-2.404-.57c-.92-.21-1.716-.45-2.385-.72-.668-.262-1.214-.577-1.646-.939a3.45 3.45 0 0 1-.952-1.245c-.208-.469-.31-1.008-.31-1.614 0-.663.143-1.274.426-1.833a4.29 4.29 0 0 1 1.195-1.442 5.723 5.723 0 0 1 1.846-.947 7.858 7.858 0 0 1 2.385-.345c.922 0 1.763.117 2.52.345.757.224 1.407.549 1.959.975a4.56 4.56 0 0 1 1.298 1.554c.318.612.49 1.3.51 2.07h-2.112c-.216-1.983-1.576-2.974-4.078-2.974-1.224 0-2.161.225-2.822.682-.66.451-.99 1.061-.99 1.831 0 .346.06.647.183.89.122.249.327.466.619.65.292.188.682.359 1.164.505.486.149 1.089.303 1.81.456.496.105.998.218 1.518.336.519.113 1.02.26 1.51.431a8.72 8.72 0 0 1 1.39.611c.437.239.82.527 1.148.868.328.34.585.743.778 1.21.19.462.283 1.007.283 1.632 0 .718-.151 1.382-.453 1.982a4.735 4.735 0 0 1-1.266 1.56 6.22 6.22 0 0 1-1.932 1.028c-.746.247-1.56.37-2.44.37zm22.432-15.044l-5.032.031-.031 14.97-1.983.094V48.988l-4.966.03-.032-2.013H30.01zM43.245 64c-1.02 0-1.89-.103-2.602-.31-.713-.205-1.307-.486-1.783-.838a4.043 4.043 0 0 1-1.13-1.23c-.274-.471-.265-.378-.407-.912-.144-.535-.261-1.462-.298-2.033-.038-.571-.026-1.35-.026-1.898v-9.744l1.956-.031v9.738c0 1.099.096 1.995.287 2.685.19.693.465 1.235.831 1.624.363.388.81.654 1.34.79.53.135 1.138.203 1.832.203a7.27 7.27 0 0 0 1.831-.21c.531-.141.978-.41 1.334-.803.356-.39 1.346-.933 1.53-1.62.187-.687.096-1.579.096-2.67l-.032-9.768 2.006.03v9.776c0 1.132.091 2.27-.103 3.167-.196.89-1.035 1.523-1.52 2.142-.486.618-1.147 1.092-1.977 1.419-.834.329-1.892.493-3.165.493zm26.67-8.593c0 5.534-2.756 8.55-8.345 8.55l-5.582.032.032-17.016 5.738.03c5.588 0 8.157 2.99 8.157 8.404zm-2.243 0c0-.955-.096-1.816-.284-2.58-.194-.765-.519-1.412-.985-1.944-.468-.53-1.096-.937-1.887-1.218-.795-.286-1.542-.71-2.749-.71l-3.792.032v12.988h3.542c1.198 0 2.44-.332 3.235-.62.794-.288 1.176-.734 1.645-1.283.472-.545.797-1.211.991-1.997.188-.784.284-1.675.284-2.668zm11.35 8.52l-2.018.03.032-16.922 1.923-.031zM92.205 46.99c1.143 0 2.194.208 3.151.615a7.31 7.31 0 0 1 2.481 1.726c.699.74 1.242 1.63 1.636 2.677.39 1.044.59 2.2.59 3.473 0 1.262-.198 2.414-.585 3.46-.387 1.042-.929 1.94-1.62 2.687a7.261 7.261 0 0 1-2.482 1.746c-.965.419-2.02.627-3.17.627-1.148 0-2.207-.208-3.166-.62a7.282 7.282 0 0 1-2.49-1.736c-.697-.743-1.24-1.64-1.628-2.688-.386-1.05-.58-2.207-.58-3.476 0-1.281.194-2.442.585-3.487.395-1.044.94-1.935 1.643-2.678A7.26 7.26 0 0 1 89.06 47.6a8.071 8.071 0 0 1 3.144-.61zm-.011 15.141c.817 0 1.57-.147 2.256-.447.69-.301 1.282-.735 1.78-1.306.499-.57.887-1.27 1.165-2.095.28-.824.42-1.76.42-2.802 0-1.045-.14-1.98-.42-2.8-.278-.823-.666-1.511-1.166-2.076a4.982 4.982 0 0 0-1.765-1.289 5.534 5.534 0 0 0-2.223-.441c-.815 0-1.571.149-2.263.446a5.088 5.088 0 0 0-1.79 1.302c-.5.566-.894 1.26-1.173 2.077-.279.815-.415 1.743-.415 2.781 0 1.042.136 1.978.41 2.802.276.825.663 1.524 1.16 2.095a4.986 4.986 0 0 0 1.772 1.306c.683.3 1.437.447 2.252.447z"/></g></g></svg>