<svg xmlns="http://www.w3.org/2000/svg" width="41" height="40" viewBox="0 0 41 40"><g><g><path fill="#fff" d="M34.79 24.707a14.444 14.444 0 0 1-.86 2.036l3.448 4.749-5.4 5.313-4.837-3.397c-.659.327-1.346.607-2.057.838l-.977 5.767H16.47l-.977-5.765a15.558 15.558 0 0 1-2.057-.838l-4.836 3.397-5.4-5.315 3.447-4.749a14.605 14.605 0 0 1-.86-2.033l-5.847-.959v-7.515l5.833-.956c.235-.71.524-1.396.862-2.055L3.198 8.493l5.4-5.313 4.803 3.374A15.196 15.196 0 0 1 15.5 5.7l.97-5.725h7.638l.97 5.726c.724.234 1.426.521 2.097.855l4.801-3.375 5.403 5.315-3.438 4.732c.338.658.626 1.344.862 2.053l6.24 1.112v7.36zm-14.502.291c2.81 0 5.087-2.24 5.087-5.005 0-2.763-2.277-5.004-5.087-5.004-2.81 0-5.087 2.24-5.087 5.004 0 2.765 2.277 5.005 5.087 5.005 0 0-2.81 0 0 0z"/></g></g></svg>