<svg xmlns="http://www.w3.org/2000/svg" width="104" height="59" viewBox="0 0 104 59"><g><g><g><text dominant-baseline="text-before-edge" style="line-height:27px" fill="#fff" font-family="'Oswald','Oswald-Bold'" font-size="9" font-style="none" font-weight="700" transform="translate(42 51)"><tspan style="font-kerning:normal" letter-spacing="9.18">THEME</tspan></text></g></g><g><g><text dominant-baseline="text-before-edge" style="line-height:27px" fill="#fff" font-family="'Oswald','Oswald-Bold'" font-size="30" font-style="none" font-weight="700" transform="translate(43 26)"><tspan style="font-kerning:normal" letter-spacing="3.3">MAK</tspan></text></g></g><g><path fill="#ffe600" d="M37.7 47.734c0 3.022-1.1 5.536-3.269 7.473-2.136 1.906-4.761 2.874-7.799 2.874-1.955 0-3.724-.37-5.257-1.098-1.547-.732-2.816-1.747-3.771-3.017a14.349 14.349 0 0 1-2.143-4.095c-.49-1.472-.777-3.074-.855-4.758l-.04-.82.807-.155 8.064-1.551 1.128-.217v1.149c0 .79.016 1.487.042 2.074.03.574.102 1.21.218 1.882.109.636.252 1.153.429 1.534.151.33.359.597.631.82.217.175.462.257.77.257.527 0 1.41 0 1.41-2.068 0-2.455-1.458-4.978-4.332-7.502l-2.457-2.088a44.964 44.964 0 0 1-1.913-1.668 23.515 23.515 0 0 1-1.725-1.848c-.677-.794-1.218-1.579-1.606-2.332-.032-.061-.06-.13-.09-.193l-.15.212-11.455-5.436s-.49-.414.15-.452c.64-.037 4.833 1.147 6.395 1.091.866-.074 2.37-.526 1.524-2.2-.677-1.092-1.767-2.22-4.232-3.855-.243-.133-.433-.697.301-.452.734.244 4.665 2.444 6.244 1.843.101-.054.254-.155.417-.303.203-.687.465-1.337.792-1.945-.028-.617-.25-1.373-.813-2.286a110.403 110.403 0 0 0-4.873-7.24c-.065-.224-.036-.387.093-.373a.582.582 0 0 1 .266.028 111.29 111.29 0 0 0 7.242 4.87c.956.591 1.739.806 2.37.814.585-.31 1.202-.573 1.855-.786.151-.165.256-.32.31-.423.6-1.579-1.6-5.51-1.845-6.244-.245-.734.32-.545.451-.3 1.638 2.463 2.766 3.554 3.857 4.23 1.672.848 2.126-.657 2.2-1.523.056-1.56-1.128-5.754-1.09-6.394.037-.64.45-.15.45-.15l5.395 11.367a11.103 11.103 0 0 1 2.657 2.008c2.123 2.157 3.202 4.792 3.202 7.834v.035l-.005.036-.016.241v1.454l-.82.112-8.217 1.136-1.08.15v-1.09c0-.172.012-.442.036-.811.021-.322.031-.58.031-.783a9.18 9.18 0 0 0-.098-1.367 7.203 7.203 0 0 0-.318-1.27c-.11-.315-.267-.552-.478-.724-.18-.147-.393-.214-.671-.214-.545 0-.905.182-1.166.59-.34.533-.506 1.16-.506 1.914 0 .705.11 1.37.327 1.975.214.604.549 1.18.993 1.71.489.587.943 1.076 1.35 1.455.423.394.993.883 1.698 1.453a43.02 43.02 0 0 1 1.591 1.334c1.136 1.004 2.12 1.969 2.912 2.86a22.785 22.785 0 0 1 2.28 3.065 13.975 13.975 0 0 1 1.653 3.798c.363 1.341.548 2.807.548 4.353zM2.53 23.965A1.543 1.543 0 1 1 .35 26.147a1.543 1.543 0 0 1 2.182-2.182zm2.502-3.103a1.542 1.542 0 1 1 2.18-2.183 1.542 1.542 0 0 1-2.18 2.183zM18.218 8.015A1.543 1.543 0 1 1 20.4 5.834a1.543 1.543 0 0 1-2.183 2.18zm5.531-4.553a1.543 1.543 0 1 1 2.182-2.181 1.543 1.543 0 0 1-2.182 2.181zm-16.647 6.79a1.542 1.542 0 1 1 2.18-2.182 1.542 1.542 0 0 1-2.18 2.183z"/></g></g></svg>