<svg xmlns="http://www.w3.org/2000/svg" width="39" height="31" viewBox="0 0 39 31"><g><g><path fill="#fff" d="M11.607 17.94c0-4.285 3.54-7.76 7.907-7.76 4.366 0 7.907 3.475 7.907 7.76 0 4.288-3.54 7.764-7.907 7.764-4.366 0-7.907-3.476-7.907-7.763 0 0 0 4.287 0 0zM36.544 4.807c1.337 0 2.433 1.075 2.433 2.388v21.495c0 1.312-1.096 2.388-2.433 2.388H2.484c-1.337 0-2.432-1.076-2.432-2.388V7.194c0-1.313 1.095-2.388 2.432-2.388H11c.607-2.389 1.216-4.777 3.65-4.777h9.73c2.433 0 3.041 2.388 3.649 4.777zm-17.03 23.733c5.963 0 10.796-4.743 10.796-10.598 0-5.854-4.833-10.598-10.796-10.598-5.962 0-10.795 4.744-10.795 10.598 0 5.855 4.833 10.598 10.795 10.598 0 0-5.962 0 0 0zm17.468-18.55l-4.991-.032v2.076l4.991-.031z"/></g></g></svg>