<svg xmlns="http://www.w3.org/2000/svg" width="121" height="18" viewBox="0 0 121 18"><g><g><path fill="#fff" d="M111.975 2.014l-2.671-.031c1.067.397 1.634 1.6 1.634 2.837 0 1.037-.592 1.928-1.431 2.562-.817.62-.973.88-.973 1.406 0 .447.875 1.213 1.334 1.526 1.34.918 2.085 1.77 2.085 3.191 0 1.774-2.083 3.537-5.294 3.537-2.815 0-5.66-1.14-5.66-2.913 0-1.8 2.637-3.506 5.452-3.506.305 0 .586-.01.879-.01-.386-.361-.69-.806-.69-1.356 0-.325.107-.638.257-.917-.152.011-.31.014-.47.014-2.313 0-3.863-1.593-3.863-3.567 0-1.933 2.14-3.817 4.413-3.817h5.038zm-1.7 11.186c-.212-.811-.971-1.214-2.027-1.925a4.349 4.349 0 0 0-1.261-.197c-1.947-.02-3.97 1.15-3.97 2.554 0 1.433 1.717 2.377 3.663 2.377 2.318 0 3.376-.714 3.376-2.146 0-.174.01-.468.22-.6 0 0 .212.749 0-.063zm-3.115-5.346c1.306.038 2.181-1.276 1.957-2.939-.226-1.66-1.468-2.994-2.774-3.031-1.306-.04-2.18 1.233-1.956 2.895.226 1.66 1.466 3.038 2.773 3.075zm13.871-2.928L121 5.973l-4.038.032.03 3.986-.992.032.032-4.05-3.978.032-.063-.986 4.01-.031V.97h.992v3.955z"/></g><g><path fill="#fff" d="M84.535 3.215a7.904 7.904 0 0 1-2.268.623 3.975 3.975 0 0 0 1.736-2.184 7.898 7.898 0 0 1-2.506.958 3.941 3.941 0 0 0-2.881-1.247 3.946 3.946 0 0 0-3.947 3.947c0 .31.035.611.1.9a11.199 11.199 0 0 1-8.134-4.125 3.949 3.949 0 0 0 1.22 5.271 3.955 3.955 0 0 1-1.786-.493l-.001.048a3.95 3.95 0 0 0 3.166 3.872 3.96 3.96 0 0 1-1.783.067 3.955 3.955 0 0 0 3.687 2.742 7.923 7.923 0 0 1-5.843 1.635A11.188 11.188 0 0 0 71.345 17c7.261 0 11.23-6.015 11.23-11.23 0-.173-.002-.342-.01-.513a8.034 8.034 0 0 0 1.97-2.043"/></g><g><path fill="#fff" d="M39.5 17.733c-4.622 0-8.384-3.76-8.384-8.384 0-4.622 3.762-8.382 8.384-8.382 4.624 0 8.384 3.76 8.384 8.382 0 4.624-3.76 8.384-8.384 8.384-4.624 0 0 0 0 0zm7.072-7.235c-.247-.077-2.217-.666-4.46-.307.936 2.574 1.317 4.67 1.389 5.106a7.173 7.173 0 0 0 3.07-4.8c.32-1.992 0 0 0 0zm-4.274 5.454c-.107-.628-.523-2.817-1.53-5.43l-.046.015c-4.038 1.408-5.488 4.209-5.616 4.472a7.125 7.125 0 0 0 4.394 1.51 7.08 7.08 0 0 0 2.798-.567c.86-.368 0 0 0 0zm-8.117-1.803c.162-.278 2.127-3.532 5.821-4.726.093-.031.187-.058.282-.086a25.75 25.75 0 0 0-.58-1.215c-3.577 1.07-7.047 1.027-7.36 1.02a7.133 7.133 0 0 0 1.837 5.007c1.145 1.271 0 0 0 0zm-1.69-6.256c.32.005 3.27.018 6.62-.872a45.476 45.476 0 0 0-2.655-4.141 7.187 7.187 0 0 0-3.966 5.013c-.465 2.223 0 0 0 0zM37.821 2.4a38.602 38.602 0 0 1 2.672 4.192c2.546-.954 3.624-2.404 3.752-2.588A7.129 7.129 0 0 0 37.822 2.4c-.539.129 0 0 0 0zm7.22 2.432c-.15.206-1.35 1.744-3.997 2.825.165.34.327.687.477 1.037.052.123.103.248.152.37 2.383-.3 4.75.18 4.986.23a7.104 7.104 0 0 0-1.618-4.462c-1-1.219 0 0 0 0z"/></g><g><path fill="#fff" d="M5.009 17.009h-3.01l.032-8.04-2.018.03.03-3.042 1.926-.002.028-1.6c0-2.305 1.343-4.396 4.057-4.396l1.98-.031-.032 3.107-1.569-.031c-1.057 0-1.483.894-1.483 1.631l.09 1.351 2.947.032L8 8.998 5.042 9z"/></g></g></svg>