<svg xmlns="http://www.w3.org/2000/svg" width="18" height="15" viewBox="0 0 18 15"><g><g><path fill="#fff" d="M17.943 2.222a7.22 7.22 0 0 1-2.106.58A3.687 3.687 0 0 0 17.449.775a7.418 7.418 0 0 1-2.328.89 3.668 3.668 0 0 0-6.344 2.508c0 .289.032.567.092.835a10.397 10.397 0 0 1-7.554-3.83c-.32.54-.5 1.17-.5 1.842a3.67 3.67 0 0 0 1.633 3.054 3.7 3.7 0 0 1-1.661-.458l-.001.042a3.672 3.672 0 0 0 2.942 3.6c-.308.085-.63.125-.967.125-.235 0-.466-.02-.691-.064a3.674 3.674 0 0 0 3.427 2.547 7.346 7.346 0 0 1-4.553 1.57 7.77 7.77 0 0 1-.877-.049 10.408 10.408 0 0 0 5.62 1.647c6.748 0 10.436-5.589 10.436-10.436 0-.161-.003-.317-.011-.477a7.335 7.335 0 0 0 1.83-1.898"/></g></g></svg>