<svg xmlns="http://www.w3.org/2000/svg" width="43" height="44" viewBox="0 0 43 44"><g><g><path fill="#ffe600" d="M38.086-.007l2.89 24.544-3.244.382-2.583-21.92H7.782L5.199 24.92l-3.244-.382L4.846-.007zm-27.09 4.959h20.97l.042 3.037-21.012.084zm.025 6.035h21.015l-.03 3.029-21.017-.032zm0 5.996h20.984v3.03l-21.016.031zm-.063 4.997h21.047l.031 3.061-21.047-.031zm30.992 5.996c.757 0 1.244.711 1.004 1.428l-4.54 13.258c-.24.718-1.055 1.305-1.812 1.305H6.329c-.756 0-1.571-.587-1.81-1.305L.04 29.531c-.24-.719.028-1.555.784-1.555l41.032.063s-.663-.063.093-.063zm-14.98 1.999H15.992l-.031 2.998H27z"/></g></g></svg>